<?xml version="1.0" encoding="UTF-8" standalone="no"?>
<!DOCTYPE svg PUBLIC "-//W3C//DTD SVG 1.1//EN" "http://www.w3.org/Graphics/SVG/1.1/DTD/svg11.dtd">
<svg width="100%" height="100%" viewBox="0 0 2918 503" version="1.1" xmlns="http://www.w3.org/2000/svg" xmlns:xlink="http://www.w3.org/1999/xlink" xml:space="preserve" xmlns:serif="http://www.serif.com/" style="fill-rule:evenodd;clip-rule:evenodd;stroke-linecap:round;stroke-linejoin:round;stroke-miterlimit:2;">
    <g transform="matrix(1,0,0,1,-2284.72,-84.0179)">
        <g transform="matrix(1.01143,0,0,1.05044,122.168,-607.959)">
            <g id="logo-long" transform="matrix(4.11959,0,0,3.96658,1817.04,-211.657)">
                <g transform="matrix(0.240087,0,0,0.240087,0.118422,-0.116386)">
                    <path d="M650.643,1409.41L819.086,1409.41L406.71,914.462L324.141,914.495L324.141,1409.41L443.773,1409.41L443.775,1161.16L650.643,1409.41Z" style="fill:rgb(56,72,78);fill-rule:nonzero;"/>
                </g>
                <g transform="matrix(0.279471,0,0,0.279471,137.933,290.061)">
                    <path d="M0,-252.688L210.535,-252.688L210.535,0L0,-252.688Z" style="fill:rgb(0,177,226);fill-rule:nonzero;"/>
                </g>
                <g transform="matrix(0.40469,4.26079e-17,1.60823e-16,0.255828,-53.3458,183.252)">
                    <rect x="670.059" y="361.394" width="136.994" height="78.803" style="fill:rgb(56,72,78);fill-rule:nonzero;stroke:rgb(56,72,78);stroke-width:6.54px;"/>
                    <path d="M855.979,145.39L978.739,145.39C1012.54,145.39 1039.23,149.494 1058.8,157.703C1078.37,165.911 1092.75,180.101 1101.94,200.27C1111.14,220.44 1115.73,248.35 1115.73,283.999L1115.73,469.748C1115.73,504.459 1111.43,531.313 1102.83,550.31C1094.24,569.307 1080.15,582.676 1060.58,590.415C1041.01,598.155 1013.88,602.025 979.184,602.025L855.979,602.025L855.979,145.39ZM976.071,523.925C995.048,523.925 1009.36,522.635 1018.99,520.056C1028.63,517.476 1035.6,512.433 1039.9,504.928C1044.2,497.423 1046.35,485.697 1046.35,469.748L1046.35,281.888C1046.35,260.311 1040.93,245.183 1030.11,236.506C1019.29,227.828 1002.02,223.489 978.295,223.489L925.365,223.489L925.365,523.925L976.071,523.925Z" style="fill:rgb(56,72,78);fill-rule:nonzero;stroke:rgb(56,72,78);stroke-width:5.91px;"/>
                    <path d="M1171.78,145.39L1301.65,145.39C1340.2,145.39 1368.07,152.778 1385.27,167.553C1402.47,182.329 1411.07,207.072 1411.07,241.783L1411.07,321.993C1411.07,348.73 1405.07,369.72 1393.06,384.965C1381.05,400.209 1365.11,409.943 1345.24,414.164L1428.86,602.025L1348.8,602.025L1273.19,422.607L1241.16,422.607L1241.16,602.025L1171.78,602.025L1171.78,145.39ZM1300.76,350.137C1317.07,350.137 1328.19,346.736 1334.12,339.935C1340.05,333.133 1343.02,319.882 1343.02,300.181L1343.02,267.816C1343.02,250.929 1339.83,239.32 1333.45,232.988C1327.08,226.655 1316.18,223.489 1300.76,223.489L1241.16,223.489L1241.16,350.137L1300.76,350.137Z" style="fill:rgb(56,72,78);fill-rule:nonzero;stroke:rgb(56,72,78);stroke-width:5.91px;"/>
                    <path d="M1592.99,609.061C1509.66,609.061 1468,564.969 1468,476.784L1468,145.39L1537.39,145.39L1537.39,476.784C1537.39,497.423 1541.61,511.612 1550.07,519.352C1558.52,527.092 1573.12,530.961 1593.88,530.961C1614.34,530.961 1628.64,527.092 1636.8,519.352C1644.95,511.612 1649.03,497.423 1649.03,476.784L1649.03,145.39L1718.42,145.39L1718.42,476.784C1718.42,564.969 1676.61,609.061 1592.99,609.061Z" style="fill:rgb(56,72,78);fill-rule:nonzero;stroke:rgb(56,72,78);stroke-width:5.91px;"/>
                    <path d="M1779.8,145.39L1849.18,145.39L1849.18,602.025L1779.8,602.025L1779.8,145.39ZM1850.96,359.987L1959.04,145.39L2040.44,145.39L1931.02,357.876L2052.45,602.025L1967.94,602.025L1850.96,359.987Z" style="fill:rgb(56,72,78);fill-rule:nonzero;stroke:rgb(56,72,78);stroke-width:5.91px;"/>
                </g>
            </g>
        </g>
    </g>
</svg>
